<svg width="100" height="99" fill="none" xmlns="http://www.w3.org/2000/svg"><g clip-path="url(#clip0)"><path d="M58.413 51.193l-1.785-1.776-6.37-6.338-1.785-1.776 1.786-1.78 6.697-6.65-11.133-4.279c-3.296-1.271-6.17-.717-8.7 1.82A11823.66 11823.66 0 013.64 63.893C1.89 65.633.656 67.627.363 70.046a43.743 43.743 0 00-.333 6.605c.104 4.145 2.367 6.678 6.225 8.138A2562.096 2562.096 0 0138.574 97.26c3.918 1.549 7.07.93 10.059-2.082C58.577 85.17 68.6 75.285 78.555 65.312c.994-1.02 1.72-2.345 2.576-3.528v-1.588c-1.318-3.265-4.545-3.507-7.459-4.843 0 1.583-.024 2.88 0 4.175.07.294.248.551.498.723 1.551 1.251 1.6 1.672.189 3.072-9.921 9.861-19.841 19.723-29.759 29.584-.94.935-1.88 1.232-3.127.747A16907.769 16907.769 0 006.896 80.267c-1.203-.465-1.988-1.222-2.148-2.474-.412-3.017-.278-6.01.92-8.83 1.064-2.513 2.566-3.028 5.097-2.043 9.5 3.69 18.997 7.386 28.49 11.086 3.396 1.326 6.32.648 8.846-1.885 9.51-9.528 19.013-19.061 28.51-28.6 2.864-2.878 2.153-6.203-1.676-7.687l-3.664-1.42-11.068 11.017-1.79 1.762z" fill="#000"/><path d="M100 6.689L82.428 24.232 100 41.715l-6.364 6.337-17.572-17.538-17.616 17.538-6.365-6.337L69.65 24.23 52.083 6.69 58.448.416l17.636 17.483L93.656.416 100 6.689z" fill="#818689"/></g><defs><clipPath id="clip0"><path fill="#fff" d="M0 0h100v98.077H0z"/></clipPath></defs></svg>