<svg width="100" height="89" fill="none" xmlns="http://www.w3.org/2000/svg"><g clip-path="url(#clip0)"><path d="M0 88.235c.273-2.623.506-5.257.834-7.875.263-2.04.967-3.999 2.064-5.741a14.221 14.221 0 014.286-4.349c4.696-3.163 9.807-5.715 14.731-8.576 1.233-.711 2.427-1.513 3.837-2.371l1.168.565c1.365-2.643 1.749-5.045.096-7.8-2.2-3.682-3.933-7.637-5.92-11.441a8.815 8.815 0 00-1.552-2.018c-1.921-1.968-3.67-4.036-3.584-6.982.045-1.428.283-2.876 2.168-3.532l1.072 3.148c.273-2.305.506-4.338.759-6.462l-2.063-.323c.43-2.856.834-5.666 1.29-8.476.616-3.849 1.344-7.688 1.864-11.552.177-1.292.693-1.892 1.891-2.26A48.626 48.626 0 0142.202.171c3.923.398 7.785 1.367 11.658 2.174a2.024 2.024 0 011.375 1.185c1.228 6.942 2.356 13.9 3.539 20.952l-1.906.297c.202 2.1.4 4.168.637 6.685l1.117-3.31c1.88.54 2.088 2.019 2.148 3.431.137 2.956-1.648 5.005-3.538 7.018a13.112 13.112 0 00-1.891 2.77c-1.88 3.53-3.584 7.183-5.56 10.66-1.7 2.955-1.649 5.387.702 8.237l1.097-.57c1.051.641 2.022 1.332 3.099 1.887 3.614 1.897 7.315 3.637 10.864 5.645 4.575 2.583 8.371 6.095 9.878 11.245.905 3.093.905 6.453 1.314 9.697L0 88.235zm3.781-3.264h69.304c-.146-3.223-.126-6.361-2.275-8.934-2.34-2.795-4.919-5.292-8.27-6.907-3.21-1.543-6.395-3.143-9.52-4.853-1.061-.58-1.693-.409-2.527.338-3.817 3.4-7.684 6.745-11.572 10.14-.404-.322-.768-.595-1.107-.888-3.73-3.243-7.441-6.513-11.213-9.706-.41-.353-1.31-.61-1.719-.404-4.352 2.21-8.79 4.309-12.936 6.872C6.764 73.827 3.003 78.1 3.78 84.97zm51.216-63.41c-.04-.645 0-1.099-.096-1.543-.738-4.349-1.587-8.682-2.199-13.046-.207-1.478-.799-1.993-2.169-2.32a52.57 52.57 0 00-24.938.05c-1.132.272-1.638.777-1.78 1.922-.257 2.018-.662 4.076-.97 6.114-.445 2.916-.864 5.832-1.304 8.824h33.456z" fill="#000"/><path d="M90.794 15.588a8.33 8.33 0 012.629.424 4.944 4.944 0 013.301 3.592 5.538 5.538 0 01-1.405 5.146c-1.583 1.62-3.615 2.144-5.561 2.653l-.308.081-.89.222-.885.227h-.076a24.91 24.91 0 00-4.226 1.76c-.592.334-1.127.697-1.663 1.06a15.504 15.504 0 01-2.427 1.418 2.453 2.453 0 01-.91.207c-.414 0-.505-.167-.566-.217-.46-.651-.101-1.766.157-2.583l.03-.086c.449-1.385.97-2.746 1.562-4.076.273-.616.582-1.166.905-1.75.147-.258.293-.505.44-.803l.162-.247.065-.106.04-.066c.092-.171.213-.358.33-.55l.105-.161v-.025a.123.123 0 000-.036 18.76 18.76 0 011.077-1.584c2.245-2.92 5.121-4.54 8.089-4.54m3.483 18.313a6.242 6.242 0 014.176 1.514c.233.198.451.414.652.645a3.67 3.67 0 01.748 3.532 4.106 4.106 0 01-2.841 2.75 5.44 5.44 0 01-1.39.176 11.216 11.216 0 01-3.135-.585l-.556-.162c-.556-.156-1.01-.287-1.446-.398l-.106-.026c-.222-.035-.505-.1-.788-.166a10.84 10.84 0 00-1.112-.222l-.223-.025a9.8 9.8 0 00-.753-.056h-.905c-.455 0-.976 0-1.552.066-.207 0-.41.03-.612.03-.617 0-.854-.121-.94-.222-.086-.1-.106-.11-.08-.383.065-.717.762-1.393 1.329-1.932a15.48 15.48 0 013.862-2.77l.308-.152.061-.03a11.27 11.27 0 015.303-1.554" fill="#818689"/></g><defs><clipPath id="clip0"><path fill="#fff" d="M0 0h100v88.235H0z"/></clipPath></defs></svg>