<svg width="100" height="86" fill="none" xmlns="http://www.w3.org/2000/svg"><path d="M41.401 54.583c-2.527-1.933-3.745-4.772-3.624-8.439a17.38 17.38 0 011.034-5.263 1.51 1.51 0 00-.015-1.162 1.528 1.528 0 00-.84-.812 1.55 1.55 0 00-1.173.012c-.374.158-.67.456-.822.829a20.088 20.088 0 00-1.25 6.195c-.175 4.68 1.483 8.5 4.814 11.048 5.976 4.572 5.09 7.264 4.663 9.837-.03.174-.056.347-.079.483-.06.399.044.805.287 1.128a1.54 1.54 0 001.236.616 1.548 1.548 0 001.003-.371 1.52 1.52 0 00.515-.928c.02-.129.042-.275.07-.436.432-2.657 1.6-7.054-5.819-12.737zm56.386-6.212c-2.655-1.872-5.572-2.314-7.407-2.056l1.646-4.713-29.517-10.109-1.38 3.949c-1.228-1.347-4.013-2.879-7.528-2.879-3.515 0-4.826 3.054-4.863 3.136-.684 1.563-.968 2.844.042 3.575.918.662 2.736.446 3.29-.361.204.85.747 1.297 1.512 1.48.903.213 1.9-.162 2.632-.898a2.151 2.151 0 001.414 1.084c.604.13 1.235.051 1.787-.225l-1.881 5.367L87.05 55.83l1.512-4.328c.29.481.725.858 1.245 1.078a2.172 2.172 0 001.788-.07c.161 1.016.753 1.895 1.614 2.241.729.292 1.434.24 2.097-.337-.02.976 1.332 2.197 2.468 2.185 1.253-.014 1.767-1.216 2.13-2.885.02-.084.739-3.325-2.118-5.344zm-10.926 3.037a2.557 2.557 0 00-1.81.233 2.516 2.516 0 00-1.182 1.376l-21.895-7.49a2.485 2.485 0 00-.106-1.895 2.525 2.525 0 00-1.418-1.28l2.234-6.39a2.558 2.558 0 001.913-.137 2.517 2.517 0 001.267-1.426l.01-.034 21.89 7.497c0 .01-.01.021-.013.033a2.485 2.485 0 00.067 1.812 2.52 2.52 0 001.282 1.294l-2.239 6.407zm-17.468 4.589a1.538 1.538 0 00-.945.69 1.51 1.51 0 00-.178 1.15c.08.328 1.895 8.097-5.428 12.132-8.678 4.78-9.157 6.136-8.94 8.77.047.37.059.743.037 1.114a1.504 1.504 0 00.256 1.137 1.528 1.528 0 00.994.623 1.529 1.529 0 001.777-1.235c.106-.598.053-1.216 0-1.887 0-2.18.999-1.736 7.378-5.864 4.914-2.71 6.544-6.797 7.04-9.747a15.318 15.318 0 00-.124-5.778 1.513 1.513 0 00-.701-.937 1.544 1.544 0 00-1.166-.168zm-5.539-34.695l-3.022-7.57c.744.316 1.57.391 2.36.216.439-.101.85-.294 1.207-.567a3.12 3.12 0 00.86-1.012c1.064 1.075 2.52 1.624 3.842 1.312 1.118-.266 1.91-.921 2.207-2.161.81 1.177 3.468 1.494 4.809.52 1.477-1.066 1.061-2.928.06-5.221-.051-.122-1.975-4.583-7.104-4.583-5.237 0-9.37 2.326-11.107 4.32L55.35.004 11.183 17.285l2.457 6.15c-2.694-.256-6.722.457-10.402 3.055C-.938 29.444.115 34.176.143 34.308c.526 2.444 1.283 4.198 3.113 4.217 1.658.02 3.638-1.766 3.606-3.19.969.84 2 .916 3.064.49 1.26-.505 2.124-1.79 2.359-3.275a3.168 3.168 0 002.613.1 3.85 3.85 0 001.804-1.546l2.983 7.482 44.169-17.284zm-47.996.969a3.841 3.841 0 002.067-2.037c.394-.92.408-1.956.039-2.886l-.021-.049 32.75-12.817c0 .018.011.035.017.05a3.837 3.837 0 001.892 2.023 3.897 3.897 0 002.774.236l3.827 9.587a3.835 3.835 0 00-1.86 2.05 3.786 3.786 0 00.016 2.757L24.609 34a3.84 3.84 0 00-2.019-2.084 3.897 3.897 0 00-2.915-.09l-3.817-9.555z" fill="#000"/><path d="M40.4 26.516c3.804-1.487 5.594-5.929 4-9.92-1.593-3.99-5.966-6.018-9.77-4.531-3.802 1.487-5.592 5.929-3.999 9.919 1.594 3.99 5.969 6.017 9.77 4.532zM32.924 15.82a.692.692 0 01.437-.53l.293-.113a.709.709 0 01.734.129l1.855 1.646a.204.204 0 00.337-.132l.216-2.456a.69.69 0 01.445-.59l.293-.115a.708.708 0 01.91.362.7.7 0 01.056.35l-.19 2.135a.201.201 0 00.08.174.208.208 0 00.204.03l.802-.314a.709.709 0 01.77.164.693.693 0 01.148.23l.077.195a.69.69 0 01-.398.909l-1.674.655a.202.202 0 00-.114.26l.25.626a.198.198 0 00.185.127.202.202 0 00.077-.014l1.674-.655a.708.708 0 01.92.394l.077.193a.688.688 0 01-.398.91l-1.674.655a.2.2 0 00-.114.26l.761 1.912a.689.689 0 01-.398.91l-.448.173a.708.708 0 01-.917-.394l-.762-1.91a.207.207 0 00-.263-.113l-1.43.56a.71.71 0 01-.77-.163.695.695 0 01-.148-.23l-.078-.195a.688.688 0 01.165-.762.704.704 0 01.234-.147l1.421-.558a.198.198 0 00.114-.259l-.249-.639a.2.2 0 00-.185-.126.204.204 0 00-.078.015l-1.422.556a.707.707 0 01-.92-.394l-.076-.193a.688.688 0 01.164-.763.702.702 0 01.234-.147l.55-.216a.2.2 0 00.06-.335l-1.607-1.423a.695.695 0 01-.23-.644zm43.545 23.016c-2.541-.869-5.358.585-6.29 3.252-.931 2.666.373 5.543 2.913 6.412 2.542.868 5.356-.586 6.288-3.252.932-2.667-.372-5.542-2.911-6.412zm.93 2.79l-1.016.985a.13.13 0 00.05.219l.525.182a.458.458 0 01.288.587l-.045.129a.456.456 0 01-.236.264.465.465 0 01-.356.02l-1.11-.376a.131.131 0 00-.106.002.132.132 0 00-.07.08l-.147.416a.136.136 0 00.004.104.135.135 0 00.078.07l1.12.384a.468.468 0 01.266.234.457.457 0 01.021.351l-.045.13a.469.469 0 01-.591.283l-1.12-.382a.132.132 0 00-.15.035.126.126 0 00-.026.047l-.445 1.275a.464.464 0 01-.58.271l-.298-.1a.465.465 0 01-.288-.588l.444-1.275a.13.13 0 00-.002-.104.128.128 0 00-.078-.07l-.952-.326a.468.468 0 01-.266-.234.456.456 0 01-.021-.351l.045-.13a.46.46 0 01.412-.31.467.467 0 01.18.024l.95.327a.135.135 0 00.15-.035.131.131 0 00.026-.047l.148-.418a.131.131 0 00-.083-.174l-.95-.327a.465.465 0 01-.313-.407.456.456 0 01.024-.178l.046-.13a.46.46 0 01.412-.31.47.47 0 01.18.025l.368.127a.141.141 0 00.128-.023.138.138 0 00.047-.12l-.186-1.39a.453.453 0 01.176-.417.458.458 0 01.446-.078l.194.066a.465.465 0 01.311.377l.212 1.607a.131.131 0 00.09.108.136.136 0 00.137-.03l1.17-1.134a.466.466 0 01.48-.106l.194.066a.467.467 0 01.302.335.451.451 0 01-.144.44z" fill="#000"/></svg>