<svg width="30" height="37" fill="none" xmlns="http://www.w3.org/2000/svg"><g clip-path="url(#clip0)" fill="#666"><path d="M14.999 36.747c-3.353 0-8.52-.565-12.047-2.156a.92.92 0 11.758-1.679c2.64 1.192 7.179 1.993 11.289 1.993 3.704 0 7.188-.689 10.078-1.993a.92.92 0 01.757 1.679C22.71 36 18.962 36.747 15 36.747zM.92 31.2a.92.92 0 01-.844-1.289c.123-.286.246-.568.372-.85l.005-.014c1.346-3.061 2.618-5.955 1.884-11.48a.921.921 0 011.826-.246c.802 6.042-.635 9.309-2.026 12.468l-.006.014c-.123.277-.246.557-.368.839a.92.92 0 01-.842.559z"/><path d="M2.588 36.745a.92.92 0 01-.902-1.113c.41-1.93 1.147-3.603 1.859-5.222 1.62-3.684 3.296-7.498 1.817-15.272a.92.92 0 011.81-.345c1.585 8.336-.289 12.598-1.941 16.358-.706 1.605-1.372 3.12-1.743 4.864a.921.921 0 01-.9.73zM29.08 31.2a.92.92 0 01-.846-.555l-.358-.819-.015-.034c-1.39-3.161-2.824-6.43-2.022-12.479a.92.92 0 111.826.246c-.737 5.537.535 8.431 1.882 11.494l.015.035c.123.274.242.552.362.83a.92.92 0 01-.844 1.289V31.2z"/><path d="M27.412 36.745a.92.92 0 01-.9-.73c-.368-1.744-1.037-3.259-1.742-4.864-1.653-3.76-3.527-8.021-1.941-16.357a.92.92 0 111.81.344c-1.48 7.774.196 11.586 1.817 15.272.711 1.62 1.448 3.293 1.858 5.223a.92.92 0 01-.902 1.112zM15 31.2a.92.92 0 01-.92-.92v-1.037a.92.92 0 011.841 0v1.037a.921.921 0 01-.92.92z"/><path d="M23.733 15.886H6.267c-1.803 0-3.308-.728-4.236-2.05-.621-.884-.963-1.976-1.014-3.247-.05-1.253.184-2.617.705-4.057C2.806 3.517 4.778.884 4.862.772a.922.922 0 011.473 1.107c-.019.025-1.89 2.53-2.877 5.276-.833 2.315-.803 4.364.082 5.622.583.829 1.527 1.267 2.73 1.267h17.467c1.204 0 2.149-.438 2.731-1.267.884-1.258.914-3.307.082-5.622-.987-2.745-2.858-5.251-2.877-5.276A.921.921 0 1125.146.771c.084.11 2.056 2.746 3.14 5.76.517 1.44.754 2.805.704 4.058-.05 1.27-.392 2.363-1.013 3.247-.936 1.322-2.44 2.05-4.244 2.05z"/><path d="M15 8.434c-1.748 0-3.377-.64-4.596-1.802C9.04 5.33 8.316 3.495 8.316 1.325a.92.92 0 011.842 0c0 3.619 2.508 5.267 4.839 5.267 2.33 0 4.839-1.648 4.839-5.267a.92.92 0 111.841 0c0 2.17-.72 4.005-2.087 5.307-1.212 1.162-2.845 1.802-4.59 1.802z"/></g><defs><clipPath id="clip0"><path fill="#fff" transform="translate(0 .404)" d="M0 0h30v36.343H0z"/></clipPath></defs></svg>