<!--?xml version="1.0" encoding="utf-8"?-->
<!-- Generator: Adobe Illustrator 18.1.1, SVG Export Plug-In . SVG Version: 6.00 Build 0)  -->

<svg version="1.1" id="_x32_" xmlns="http://www.w3.org/2000/svg" xmlns:xlink="http://www.w3.org/1999/xlink" x="0px" y="0px" viewBox="0 0 512 512" style="width: 256px; height: 256px; opacity: 1;" xml:space="preserve">
<style type="text/css">
	.st0{fill:#4B4B4B;}
</style>
<g>
	<path class="st0" d="M455.52,502.588c-3.39-102.452-33.168-167.292-62.431-211.05c-14.598-21.866-29-38.536-39.523-51.907
		c-5.258-6.662-9.527-12.498-12.374-17.507c-2.874-5.026-4.23-9.073-4.422-12.311c-0.128-1.958-0.191-3.87-0.191-5.738
		c0.023-16.946,4.923-30.344,11.627-45.173c5.436-12.044,12.018-25.006,17.226-40.466l31.887,16.422l42.565-63.782l-6.498-5.212
		c-0.094-0.072-51.284-41.241-81.36-61.985L346.409,0l-5.297,4.305l-0.044,0.035c-0.841,0.677-10.817,8.496-26.26,16.03
		c-15.447,7.543-36.29,14.732-58.805,14.713c-23.24,0.018-44.705-7.641-60.286-15.443c-7.784-3.896-14.086-7.801-18.392-10.692
		c-2.152-1.45-3.808-2.651-4.902-3.47l-1.214-0.916l-0.275-0.223l-0.049-0.035L165.591,0l-5.618,3.879
		c-30.08,20.744-81.266,61.913-81.36,61.985l-6.498,5.221l42.57,63.774l31.882-16.422c5.209,15.47,11.792,28.422,17.228,40.466
		c6.702,14.829,11.604,28.227,11.626,45.164c0,1.868-0.062,3.781-0.192,5.756c-0.191,3.229-1.548,7.276-4.42,12.302
		c-4.968,8.798-14.354,19.98-25.655,34.045C128.19,277.323,107,305.3,89.644,344.814c-17.378,39.515-30.904,90.532-33.158,157.774
		L56.17,512h9.421h390.24L455.52,502.588z M75.175,493.782c4.822-93.627,32.061-151.814,58.895-192.129
		c13.9-20.843,27.741-36.881,38.669-50.741c5.466-6.938,10.23-13.343,13.9-19.766c3.642-6.414,6.293-12.988,6.774-20.149
		c0.151-2.357,0.227-4.67,0.227-6.93c0.018-20.664-6.244-37.246-13.25-52.68c-7.05-15.514-14.793-30.138-19.556-48.322
		l-2.887-10.986l-37.14,19.135L96.542,74.866c0.632-0.506,1.206-0.96,1.918-1.529c14.531-11.538,44.887-35.361,66.575-50.741
		c4.817,3.362,12.502,8.317,22.537,13.334c17.231,8.603,41.196,17.347,68.43,17.373c27.234-0.026,51.199-8.77,68.43-17.373
		c10.044-5.025,17.738-9.981,22.551-13.343c13.838,9.811,31.246,23.102,45.768,34.408c8.228,6.396,15.541,12.178,20.79,16.342
		c0.716,0.569,1.29,1.023,1.921,1.529l-24.263,36.348l-37.144-19.135l-2.887,10.986c-4.764,18.183-12.508,32.808-19.558,48.322
		c-7.005,15.435-13.268,32.016-13.25,52.69c0,2.259,0.076,4.564,0.227,6.921c0.481,7.161,3.132,13.735,6.774,20.149
		c6.436,11.209,16.154,22.506,27.269,36.418c16.675,20.798,36.588,47.156,53.046,84.581c15.62,35.556,28.008,81.307,31.103,141.637
		H75.175z" style="fill: rgb(0, 0, 0);"></path>
</g>
</svg>
