<svg width="30" height="38" fill="none" xmlns="http://www.w3.org/2000/svg"><g clip-path="url(#clip0)" fill="#666"><path d="M20.657 12.45H9.344a.93.93 0 01-.93-.93V8.968A3.927 3.927 0 1112.85 2.64a.93.93 0 01-1.323 1.306 2.067 2.067 0 10-1.962 3.46.93.93 0 01.71.903v2.28h10.383a.93.93 0 110 1.859z"/><path d="M20.656 12.45a.93.93 0 01-.93-.93V8.31a.93.93 0 01.71-.903 2.067 2.067 0 10-1.962-3.46.93.93 0 01-1.534-.332A2.075 2.075 0 0015 2.263a.93.93 0 010-1.86 3.943 3.943 0 013.105 1.526 3.928 3.928 0 113.48 7.038v2.553a.929.929 0 01-.929.93z"/><path d="M15 19.574a6.593 6.593 0 01-6.585-6.586V11.52a.93.93 0 111.859 0v1.468a4.727 4.727 0 009.453 0V11.52a.93.93 0 111.859 0v1.468A6.593 6.593 0 0115 19.574zm6.347 15.241a.906.906 0 01-.44-.11.93.93 0 01-.487-.91l.758-7.746a.93.93 0 011.85.181l-.757 7.746a.93.93 0 01-.924.839zm-12.695 0a.93.93 0 01-.924-.84L6.97 26.23a.93.93 0 111.85-.18l.758 7.745a.93.93 0 01-.926 1.02z"/><path d="M8.268 32.277h-3.24a.93.93 0 010-1.858h3.24a.93.93 0 110 1.858zm16.704 0h-3.24a.93.93 0 010-1.858h3.24a.93.93 0 110 1.858zM15 29.57c-3.87 0-8.034-1.074-8.034-3.433s4.165-3.434 8.034-3.434c3.87 0 8.034 1.075 8.034 3.434 0 2.36-4.166 3.434-8.034 3.434zm-6.174-3.433c.024.096.366.533 1.598.942 1.232.409 2.856.633 4.576.633 1.721 0 3.346-.225 4.576-.633 1.23-.409 1.574-.846 1.598-.942-.024-.096-.366-.532-1.598-.941-1.231-.41-2.855-.634-4.576-.634-1.72 0-3.346.225-4.576.634-1.23.408-1.574.845-1.598.941zM15 37.052c-3.504 0-7.276-.991-7.276-3.167a.93.93 0 011.859-.02c.054.114.42.475 1.487.809 1.067.333 2.469.52 3.93.52 1.46 0 2.856-.186 3.93-.52 1.073-.334 1.433-.695 1.487-.81a.93.93 0 111.859.021c0 2.176-3.77 3.167-7.276 3.167z"/><path d="M4.25 37.052c-1.986 0-3.003-.867-3.505-1.591-1.06-1.528-.988-3.92.209-7.11 1.277-3.402 2.462-5.502 3.841-6.807 1.302-1.233 2.816-1.784 4.896-1.784a.93.93 0 110 1.86c-2.866 0-4.643 1.104-7.002 7.384-.943 2.512-1.093 4.43-.422 5.399.372.531 1.016.79 1.978.79a.93.93 0 110 1.86h.006zm21.5 0a.93.93 0 010-1.859c.962 0 1.61-.259 1.977-.79.672-.97.523-2.887-.42-5.399-2.355-6.28-4.137-7.385-7.002-7.385a.93.93 0 010-1.858c2.082 0 3.593.55 4.895 1.783 1.38 1.305 2.566 3.408 3.841 6.807 1.198 3.19 1.268 5.582.21 7.11-.498.726-1.515 1.591-3.502 1.591z"/></g><defs><clipPath id="clip0"><path fill="#fff" transform="translate(0 .404)" d="M0 0h30v36.648H0z"/></clipPath></defs></svg>