<svg width="36" height="37" fill="none" xmlns="http://www.w3.org/2000/svg"><g clip-path="url(#clip0)" fill="#666"><path d="M21.948 26.553a.912.912 0 01-.779-.44l-3.281-5.414-2.442 2.44c-1.197 1.199-2.746 1.582-4.24 1.582-2.6 0-5.037-1.163-5.196-1.24a.913.913 0 01-.247-1.467l1.951-1.95a.917.917 0 01.525-.26l2.58-.343 9.46-9.459A5.536 5.536 0 0126.1 8.73a1.872 1.872 0 01.674 3.08l-3.711 3.711 1.89 7.787a.913.913 0 01-.244.86l-2.116 2.117a.914.914 0 01-.646.269zm-3.885-8.237a.912.912 0 01.779.44l3.282 5.413.931-.931-1.89-7.787a.912.912 0 01.244-.86l4.076-4.076a.048.048 0 00.013-.044.047.047 0 00-.03-.035 3.707 3.707 0 00-3.898.852l-9.68 9.68a.912.912 0 01-.524.26l-2.582.344-.747.748c1.63.544 4.487 1.156 6.117-.473l3.264-3.264a.91.91 0 01.645-.267z"/><path d="M12.773 15.808a.903.903 0 01-.473-.133l-3.984-2.413a.912.912 0 01-.172-1.426l2.117-2.116a.913.913 0 01.86-.243l5.149 1.248a.912.912 0 11-.43 1.774l-4.651-1.128-.931.931 2.988 1.811a.913.913 0 01-.473 1.693v.002z"/><path d="M17.548 34.624a16.669 16.669 0 1111.787-4.883 16.562 16.562 0 01-11.787 4.883zm0-31.519C9.36 3.105 2.7 9.765 2.7 17.952s6.66 14.843 14.847 14.843 14.846-6.66 14.846-14.843-6.66-14.847-14.846-14.847z"/><path d="M2.754 36.404c-.851 0-1.524-.245-2.018-.736-1.217-1.216-.923-3.565.877-6.974a.913.913 0 111.614.851c-1.643 3.117-1.529 4.502-1.2 4.833.327.33 1.717.445 4.839-1.204 2.822-1.49 6.373-4.064 9.996-7.244a.914.914 0 011.42 1.09.912.912 0 01-.216.282c-3.728 3.271-7.403 5.93-10.348 7.486-2.039 1.08-3.698 1.616-4.964 1.616zm23.492-17.662a.913.913 0 01-.686-1.514c3.17-3.616 5.733-7.158 7.218-9.972 1.642-3.111 1.52-4.497 1.196-4.825-.325-.327-1.719-.447-4.833 1.2a.913.913 0 01-.851-1.614c3.41-1.8 5.756-2.094 6.975-.876 1.218 1.217.924 3.56-.873 6.966-1.549 2.937-4.197 6.604-7.46 10.324a.907.907 0 01-.686.311z"/></g><defs><clipPath id="clip0"><path fill="#fff" transform="translate(0 .404)" d="M0 0h36v36H0z"/></clipPath></defs></svg>